<?xml version="1.0" encoding="UTF-8"?><svg id="Capa_1" xmlns="http://www.w3.org/2000/svg" viewBox="0 0 422.12 423"><defs><style>.cls-1{fill:#82c6aa;}.cls-2{fill:#ea7071;}.cls-3{fill:#fafcfc;}.cls-4{fill:#87c8a8;}.cls-5{fill:#fbd58f;}.cls-6{fill:#f29d7c;}.cls-7{fill:#87c8a9;}.cls-8{fill:#88c8a9;}.cls-9{fill:#f9fcfc;}.cls-10{fill:#ec626a;}.cls-11{fill:#fbfdfd;}.cls-12{fill:#f2f6f6;}.cls-13{fill:#89c8a9;}.cls-14{fill:#f5b583;}.cls-15{fill:#fafbfb;}.cls-16{fill:#f7c489;}.cls-17{fill:#fbe897;}.cls-18{fill:#6ac1b9;}.cls-19{fill:#304955;}.cls-20{fill:#72c2af;}.cls-21{fill:#ee8577;}.cls-22{fill:#8ec9a1;}</style></defs><path class="cls-8" d="M375.16,211.39c2.57,2.65,4.55,5.61,5.08,9.49,.87,6.39-4.67,14.08-11.18,14.41-7.5,.38-15.03,.09-22.82,.09-.05-.86-.14-1.63-.14-2.41,0-13.27,.05-26.55-.06-39.82-.02-2.12,.74-2.7,2.65-2.69,5.75,.05,11.51-.09,17.25,.05,8.59,.21,14.3,7.95,11.84,16.05-.49,1.63-1.63,3.06-2.62,4.84Zm-18.91,15.12c3.71,0,7.16,.1,10.61-.04,2.16-.09,3.91-2.29,4-4.58,.11-2.7-1.31-5.17-3.58-5.33-3.63-.26-7.29-.07-11.04-.07v10.02Zm5.45-19.01c1.18,0,2.35,.03,3.53,0,2.91-.07,4.75-1.71,4.68-4.12-.07-2.29-1.85-3.74-4.77-3.79-2.28-.04-4.57,.11-6.83-.05-1.83-.13-2.2,.62-2.19,2.28,.02,5.7-.03,5.7,5.58,5.68Z"/><path class="cls-8" d="M252.24,216.62v18.64h-9.85v-44.57h9.81c0,3.8,0,7.38,0,10.97,0,5.83,0,5.85,5.73,5.82,4.05-.02,8.1-.16,12.15-.16,1.66,0,2.14-.74,2.12-2.31-.07-4.63-.03-9.27-.03-14.23h9.94v44.62c-3.04,0-5.96,.07-8.88-.08-.38-.02-1.01-1.1-1.02-1.7-.08-4.87-.11-9.73,0-14.6,.04-1.79-.43-2.47-2.32-2.44-5.8,.1-11.6,.04-17.67,.04Z"/><path class="cls-13" d="M159.31,217.97c-2.63,1.72-3.98,3.71-3.7,6.88,.3,3.36,.07,6.76,.07,10.55-3.1,0-6.09,.06-9.06-.08-.36-.02-.95-1.14-.96-1.75-.07-5.68-.04-11.35-.04-17.03,0-8.47,0-16.94,0-26.02,3.1,0,6.08-.06,9.04,.08,.37,.02,.97,1.15,.98,1.77,.09,4.2,.05,8.4,.05,12.61,0,.78,0,1.57,0,2.72,.66-.38,1-.48,1.22-.71,4.97-5.03,9.92-10.09,14.92-15.1,.53-.54,1.32-1.14,2-1.16,3.74-.11,7.48-.05,11.85-.05-.91,1.02-1.42,1.66-2,2.24-5.51,5.54-10.98,11.12-16.57,16.58-1.32,1.29-1.26,2.1-.07,3.42,6.32,6.99,12.56,14.05,18.81,21.09,.27,.3,.47,.68,.94,1.38-4.11,0-7.84,.11-11.55-.09-.81-.04-1.66-1.1-2.31-1.85-4.16-4.77-8.27-9.58-12.41-14.37-.33-.38-.74-.69-1.2-1.11Z"/><path class="cls-7" d="M306.48,190.68c0,1.92,0,3.52,0,5.12,0,7.3-.11,14.6,.12,21.88,.06,1.93,.89,4.05,1.96,5.68,1.74,2.65,4.88,3.58,7.31,2.76,3.39-1.15,5.88-4.32,5.93-8,.1-7.37,.05-14.74,.06-22.11q0-5.35,5.33-5.34,4.63,0,4.63,4.63c0,7.96,0,15.92,0,23.88,0,9.38-7.73,16.83-17.15,17.19-8.59,.33-16.49-6.16-17.93-14-.17-.93-.26-1.9-.26-2.85-.02-8.84,.04-17.69-.05-26.53-.02-1.84,.53-2.46,2.37-2.36,2.42,.14,4.85,.03,7.67,.03Z"/><path class="cls-4" d="M199.56,235c0-4.29,0-8.56,0-12.83,0-9.73,.05-19.46-.04-29.18-.02-1.87,.56-2.36,2.37-2.34,7.88,.08,15.77,.03,23.66,.04,.65,0,1.3,.07,2.1,.12v8.77c-1.61,0-3.19,0-4.78,0-3.68,0-7.37,.06-11.05-.02-1.6-.04-2.26,.47-2.22,2.14,.19,7.02-.98,5.65,5.6,5.79,2.87,.06,5.75,.06,8.62,0,1.3-.03,1.87,.35,1.81,1.75-.09,2.27-.03,4.54-.03,7.18-2.95,0-5.72-.05-8.48,.02-2.4,.06-5.71-.63-6.93,.63-1.26,1.3-.48,4.57-.57,6.98-.03,.72,0,1.45,0,2.41h18.18c0,2.84,.04,5.46-.06,8.07-.01,.32-.78,.87-1.2,.87-8.77,.03-17.54-.01-26.3-.04-.13,0-.26-.12-.67-.33Z"/><path class="cls-4" d="M53.43,235.31h-9.73v-44.46c.65-.06,1.35-.17,2.05-.17,5.75-.01,11.5,.13,17.25-.04,9.58-.29,15.88,10.32,11.93,19.04-2.4,5.3-6.4,8.3-12.48,8.04-2.13-.09-4.28,.1-6.41-.05-1.9-.13-2.62,.43-2.55,2.45,.15,4.27,.05,8.55,.04,12.83,0,.72-.06,1.44-.1,2.36Zm.26-35.69v9.21c2.79,0,5.42,.05,8.05-.02,2.43-.06,4.47-2.13,4.56-4.5,.09-2.26-1.71-4.49-4.12-4.65-2.76-.19-5.55-.04-8.49-.04Z"/><path class="cls-18" d="M106.61,238.62c-8.53-.77-15.01-4.93-19.33-12.21-1.66-2.8-2.58-6.05-3.72-9.14-.28-.78-.09-1.73-.12-2.6,.15-.01,.29-.04,.42-.09,2.76,0,5.51,.04,8.27-.04,1.14-.03,1.69,.35,2.05,1.46,1.81,5.56,5.62,9.13,11.12,10.97-.05,.36,.04,.89-.16,1.05-1.8,1.37-1.13,2.5,.21,3.7,.35,.32,.62,1,.56,1.46-.23,1.54-.63,3.06-.98,4.64,.51,.11,.81,.13,1.06,.25,.24,.12,.41,.35,.62,.54Z"/><path class="cls-2" d="M83.87,214.58c-.14,.05-.28,.08-.43,.09-1.78-13.59,7.71-26.3,21.07-28.18,.64,.06,1.28,.18,1.93,.18,2.64,.02,5.28,0,7.69,0l.78,3.23c-3.98,.31-5.09,3.3-5.98,6.48-.33,1.19-.64,2.38-.96,3.57-2.21,1.19-4.42,2.38-6.64,3.58,.03-1.06-.29-1.35-1.46-1.12-3.22,.65-3.76,.04-3.12-3.08,.1-.5,.28-1.09,.11-1.52-.65-1.7-.18-2.76,1.32-3.86,1.85-1.36,1.69-2.37-.28-4.13l-1.04,2.79-2.57-1.26-2.81,2.67h2.75c-.3,2.34-1.8,1.85-3.01,1.58-.49,.61-.83,1.45-1.31,1.55-2.4,.49-2.67,2.42-3.17,4.25-.17,.63-.2,1.43-.61,1.84-1.91,1.91-1.78,4.4-2,6.74-.2,2.11,1,2.98,3.03,2.28,1.89-.66,3.69-1.59,5.78-2.51l.5,1.84c-3.19,.99-6.37,1.98-9.56,2.96Z"/><path class="cls-22" d="M134.98,214.95c-.21,4.55-1.24,8.8-4.42,12.29-.54,.59-.93,1.3-1.39,1.96-.48,.14-1.17,.13-1.39,.45-1.32,1.94-2.54,1.05-3.89-.01,.53-1.55,1-3.03-1.35-3.51-.3-.06-.67-1.41-.47-1.98,.82-2.49,1.75-4.95,2.85-7.32,.29-.62,1.27-1.13,2.02-1.29,1.9-.41,3.85-.59,5.79-.86,.31-.06,.63-.13,.94-.19l1.31,.47Z"/><path class="cls-20" d="M106.61,238.62c-.2-.18-.38-.42-.62-.54-.25-.12-.55-.14-1.06-.25,.35-1.58,.75-3.1,.98-4.64,.07-.46-.2-1.15-.56-1.46-1.34-1.21-2-2.33-.21-3.7,.2-.16,.11-.69,.16-1.05,3.62,.82,7.12,.33,10.54-.95-.18,.82-.12,1.85-.6,2.43-1.85,2.26-1.78,2.53,.37,4.74,1.06,1.09,1.68,2.6,2.5,3.91-3.68,1.73-7.55,2.04-11.52,1.5Z"/><path class="cls-1" d="M118.13,237.12c-.82-1.32-1.44-2.83-2.5-3.91-2.16-2.21-2.22-2.48-.37-4.74,.48-.58,.41-1.61,.6-2.43l.03,.03,.9-.47-.03,.04,.51-.39,.1-.09h.13l1.54-1.2c2.43-2.29,4.34-4.88,5.24-8.18,.13-.49,.95-1.11,1.47-1.13,2.33-.09,4.66,.01,6.99,.05-1.93,.27-3.88,.45-5.79,.86-.75,.16-1.73,.67-2.02,1.29-1.1,2.37-2.03,4.84-2.85,7.32-.19,.58,.18,1.92,.47,1.98,2.35,.48,1.88,1.96,1.35,3.51,1.36,1.06,2.57,1.95,3.89,.01,.22-.32,.91-.31,1.39-.45-2.61,4.13-6.51,6.46-11.04,7.92Z"/><path class="cls-21" d="M107.96,199.97c.32-1.19,.63-2.38,.96-3.57,.89-3.18,2-6.17,5.98-6.48l-.78-3.23c-2.41,0-5.05,.01-7.69,0-.64,0-1.29-.12-1.93-.18,5.52-1.2,10.8-.6,15.84,2.01,.68,2.3-.82,3.75-2.03,5.36-1.75,2.33-3.4,4.74-5.1,7.11-1.75-.33-3.51-.67-5.26-1.01Z"/><path class="cls-17" d="M134.89,214.79c-.46,.21-1.97-.51-2.47-.65-2.92-.82-5.85-1.65-8.77-2.47l2.95-.52c.12-.02,.25-.05,.35-.12,.16-.13,.19-.36,.2-.57l.34-5.1c0-.12,.02-.26,.1-.35,.09-.11,.24-.13,.38-.16,.76-.19,1.35-.94,1.34-1.73,0-.56-.27-1.08-.41-1.61-.13-.47-.13-1.03,.21-1.43,.05-.05,.07-.1,.13-.08,.06,.02,.13,.13,.17,.17,.11,.11,.21,.22,.32,.33,.21,.23,.4,.46,.58,.71,.21,.28,.41,.58,.59,.88,.19-.63,.39-1.26,.42-1.92,.06-1.19-.85-1.87-.95-2.97-.1-1.07,1.25,.57,1.39,.87,1.29,2.62,2.39,5.36,3.03,8.21,.38,1.67,.59,3.39,.59,5.1,0,.88-.05,1.76-.17,2.63-.07,.49-.17,.72-.34,.8Z"/><path class="cls-5" d="M130.11,196.51c.43,.99,1.01,1.95,1.24,2.98,.15,.66-.21,1.43-.43,2.62,0-.05-.21-.26-.24-.31l-.24-.31-.43-.55c-.14-.18-.28-.37-.42-.56-.13-.17-.26-.38-.42-.52-.09,.1-.1,.27-.15,.39-.04,.11-.09,.21-.13,.32-.06,.15-.13,.32-.09,.48,.36,1.54,1.41,3.23-1.21,3.89-.18,.05-.1,1.09-.15,1.67-.12,1.57-.25,3.13-.35,4.44-1.45,.25-2.48,.43-3.5,.6-1.56-.22-3.12-.43-4.69-.65,3.2,.09,3.58-.34,2.72-2.63,.68-1,1.7-1.8,1.75-2.67,.19-3.2,2.29-5.29,3.95-7.66,.15-.22,.66-.45,.83-.36,1.64,.85,1.35-.54,1.59-1.31,.14-.01,.27,.03,.37,.14Z"/><path class="cls-6" d="M113.22,200.98c1.69-2.37,3.35-4.78,5.1-7.11,1.21-1.61,2.71-3.06,2.03-5.36,1.47,.9,2.95,1.8,4.42,2.69-.23,.73-.28,1.62-.73,2.18-1.27,1.57-3.01,2.84-3.99,4.55-1.14,1.99-2.5,3.61-4.38,4.84-.81-.6-1.63-1.19-2.44-1.79Z"/><path class="cls-14" d="M115.66,202.77c1.88-1.24,3.24-2.85,4.38-4.84,.98-1.71,2.72-2.98,3.99-4.55,.45-.56,.5-1.44,.73-2.18,.89,.86,1.78,1.72,2.67,2.58,.15,.15,.29,.3,.44,.45h0c-.47,.62-.89,1.28-1.42,1.84-.58,.61-1.38,1.03-1.87,1.7-2.15,2.92-4.23,5.89-6.33,8.85l-2.6-3.85Z"/><path class="cls-16" d="M118.26,206.62c2.1-2.95,4.18-5.93,6.33-8.85,.49-.66,1.29-1.09,1.87-1.7,.53-.56,.95-1.22,1.42-1.83,.31,.4,.62,.8,.94,1.2,.29,.32,.59,.64,.88,.96l.04-.02c-.24,.78,.04,2.17-1.59,1.31-.17-.09-.67,.14-.83,.36-1.66,2.37-3.76,4.46-3.95,7.66-.05,.86-1.07,1.67-1.75,2.67,.86,2.3,.48,2.72-2.72,2.63-.21-1.47-.43-2.93-.64-4.4Z"/><path class="cls-5" d="M129.7,196.4c-.29-.32-.59-.64-.88-.96,.29,.32,.59,.64,.88,.96Z"/><path class="cls-16" d="M127.77,194.12l-.33-.34,.33,.34Z"/><path class="cls-11" d="M356.25,226.5v-10.02c3.74,0,7.4-.19,11.04,.07,2.27,.16,3.68,2.64,3.58,5.33-.09,2.29-1.85,4.49-4,4.58-3.45,.14-6.9,.04-10.61,.04Z"/><path class="cls-9" d="M361.7,207.49c-5.62,.02-5.56,.02-5.58-5.68,0-1.66,.36-2.41,2.19-2.28,2.27,.16,4.56,.01,6.83,.05,2.91,.05,4.7,1.49,4.77,3.79,.07,2.41-1.77,4.04-4.68,4.12-1.18,.03-2.35,0-3.53,0Z"/><path class="cls-3" d="M53.69,199.62c2.95,0,5.73-.14,8.49,.04,2.41,.16,4.21,2.39,4.12,4.65-.1,2.37-2.13,4.44-4.56,4.5-2.63,.07-5.25,.02-8.05,.02v-9.21Z"/><path class="cls-19" d="M118.26,206.62c.21,1.47,.43,2.93,.64,4.4,1.56,.22,3.12,.43,4.69,.65,3.36,.94,6.72,1.88,10.08,2.82-.31,.06-.62,.13-.94,.19-2.33-.03-4.67-.14-6.99-.05-.52,.02-1.33,.64-1.47,1.13-.9,3.29-2.81,5.89-5.24,8.18-.51,.41-1.03,.81-1.54,1.22h-.13l-.1,.08-.51,.39,.03-.04c-.3,.16-.6,.31-.9,.47l-.03-.03c-3.43,1.28-6.93,1.77-10.54,.95-5.5-1.84-9.31-5.41-11.12-10.97-.36-1.11-.92-1.49-2.05-1.46-2.76,.07-5.51,.03-8.27,.04,3.19-.99,6.38-1.98,9.56-2.96,.27-.04,.53-.08,.8-.12,1.43,0,2.86,0,4.44,0v-2.65h0l1.84-4.37h-.03l.46-.49,.39-.45c2.21-1.19,4.42-2.38,6.64-3.58,1.75,.33,3.51,.67,5.26,1.01,.81,.6,1.63,1.19,2.44,1.79,.87,1.28,1.73,2.57,2.6,3.85Zm-1.88,4.21c.02-4.87-3.02-8.18-7.57-8.22-4.29-.04-7.54,3.31-7.54,7.79,0,4.41,3.27,7.73,7.61,7.73,4.22,0,7.48-3.17,7.5-7.3Zm-19.84,4c1.35,6.15,6.82,10.24,13.33,10.08,6.03-.15,11.2-4.51,12.09-10.26-2.09-.3-3.67-.25-5.23,1.89-4.19,5.73-11.99,5.54-15.84-.27-1.21-1.83-2.47-1.98-4.36-1.43Z"/><path class="cls-10" d="M101.33,203.55c-.13,.15-.26,.3-.39,.45-.15,.16-.3,.32-.46,.48h.03c-1.52,.64-3.05,1.28-4.81,2.01,.48,.18,1.01,.56,1.51,.54,1.4-.06,1.52,.76,1.46,1.8h0c-1.48,.89-2.96,1.78-4.44,2.66-.27,.04-.53,.08-.8,.12-.16-.6-.33-1.19-.5-1.84-2.09,.92-3.89,1.86-5.78,2.51-2.03,.7-3.22-.17-3.03-2.28,.22-2.34,.09-4.84,2-6.74,.41-.41,.44-1.21,.61-1.84,.5-1.83,.77-3.76,3.17-4.25,.48-.1,.82-.94,1.31-1.55,1.22,.27,2.71,.76,3.01-1.58h-2.75l2.81-2.67,2.57,1.26,1.04-2.79c1.98,1.76,2.13,2.77,.28,4.13-1.5,1.1-1.97,2.16-1.32,3.86,.16,.43-.01,1.02-.11,1.52-.64,3.12-.1,3.73,3.12,3.08,1.17-.24,1.49,.06,1.46,1.12Z"/><path class="cls-20" d="M117.49,225.15c.51-.41,1.03-.81,1.54-1.22-.51,.41-1.03,.81-1.54,1.22Z"/><path class="cls-20" d="M115.88,226.06c.3-.16,.6-.31,.9-.47-.3,.16-.6,.31-.9,.47Z"/><path class="cls-20" d="M116.75,225.62l.51-.39-.51,.39Z"/><path class="cls-15" d="M116.38,210.82c-.02,4.14-3.28,7.3-7.5,7.3-4.35,0-7.61-3.32-7.61-7.73,0-4.48,3.25-7.83,7.54-7.79,4.55,.04,7.6,3.35,7.57,8.22Z"/><path class="cls-12" d="M96.54,214.83c1.89-.56,3.14-.41,4.36,1.43,3.85,5.81,11.64,6.01,15.84,.27,1.56-2.13,3.14-2.19,5.23-1.89-.89,5.75-6.06,10.11-12.09,10.26-6.51,.16-11.98-3.93-13.33-10.08Z"/><path class="cls-2" d="M98.67,208.84c.06-1.04-.06-1.86-1.46-1.8-.51,.02-1.03-.36-1.51-.54,1.76-.74,3.28-1.37,4.81-2.01-.61,1.45-1.22,2.91-1.84,4.36Z"/><path class="cls-2" d="M94.23,211.5c1.48-.88,2.96-1.77,4.44-2.65,0,.82,0,1.64,0,2.65h-4.44Z"/><path class="cls-2" d="M100.48,204.48c.15-.16,.3-.32,.46-.48-.15,.16-.3,.32-.46,.48Z"/></svg>