<?xml version="1.0" standalone="no"?>
<!DOCTYPE svg PUBLIC "-//W3C//DTD SVG 20010904//EN"
 "http://www.w3.org/TR/2001/REC-SVG-20010904/DTD/svg10.dtd">
<svg version="1.0" xmlns="http://www.w3.org/2000/svg"
 width="512.000000pt" height="512.000000pt" viewBox="0 0 512.000000 512.000000"
 preserveAspectRatio="xMidYMid meet">
<metadata>
Created by potrace 1.14, written by Peter Selinger 2001-2017
</metadata>
<g transform="translate(0.000000,512.000000) scale(0.100000,-0.100000)"
fill="#000000" stroke="none">
<path d="M2369 5116 c-2 -2 -34 -6 -70 -10 -58 -5 -221 -32 -314 -51 -84 -17
-325 -93 -339 -106 -6 -5 -16 -9 -23 -9 -8 0 -64 -23 -126 -52 -748 -348
-1286 -1024 -1446 -1818 -38 -190 -46 -276 -46 -515 1 -204 5 -267 29 -415 10
-62 47 -221 66 -285 11 -38 22 -77 24 -85 12 -46 74 -199 119 -295 118 -252
255 -453 447 -658 179 -191 358 -336 582 -468 259 -152 591 -272 873 -314 22
-4 51 -8 65 -11 151 -27 529 -26 710 1 211 32 506 116 655 185 35 16 66 30 68
30 11 0 240 128 311 175 194 126 428 331 552 485 16 19 31 37 34 40 15 13 104
135 159 218 167 250 320 620 366 881 3 19 7 37 9 40 3 5 9 42 22 131 20 146
26 455 12 600 -60 599 -333 1163 -764 1582 -143 139 -310 268 -465 360 -182
109 -499 247 -623 272 -11 3 -66 16 -121 29 -55 14 -121 28 -146 31 -25 4 -57
9 -70 11 -78 13 -135 17 -330 20 -119 2 -218 2 -220 1z"/>
</g>
</svg>
